#!OML:ASF X:\für Bonn\!DataBase\2005_08_12_Daniel\c3d\Daniel.ASF
:FULLY-SPECIFIED
:DEGREES
130
root -3.09175 10.592 -1.22096 -331.6 -88.3599 310.857
lowerback 51.5988 -3.94328 4.74661
upperback 3.5015 -3.6804 -1.78691
thorax -17.4417 -2.2656 -2.22068
lowerneck 6.01272 3.303 -2.66094
upperneck -4.91064 4.00574 -2.61437
head -2.59932 2.12295 -0.54235
rclavicle 2.31584e-014 -3.18055e-015
rhumerus 65.2235 1.07745 -107.239
rradius 5.75474
rwrist 73.0156
rhand -23.7102 7.65663
rfingers 7.12502
rthumb 2.75723 -22.3053
lclavicle 2.31584e-014 -3.18055e-015
lhumerus 63.1999 3.6284 98.5028
lradius 9.23952
lwrist -74.1377
lhand -19.8073 1.00928
lfingers 7.12502
lthumb 6.52588 30.8887
rfemur -49.2888 -46.4951 -7.63685
rtibia 126.047
rfoot 352.817 30.6794
rtoes -12.6087
lfemur -595.456 146.958 -177.326
ltibia 124.453
lfoot -16.5571 -32.9528
ltoes 0.773416
131
root -3.09605 10.7698 -1.22244 -331.599 -88.4244 311.093
lowerback 51.1126 -3.89958 4.72341
upperback 3.53811 -3.6538 -1.80297
thorax -17.326 -2.24893 -2.25611
lowerneck 5.83864 3.31632 -2.63405
upperneck -4.78467 4.03217 -2.6735
head -2.52263 2.13417 -0.560983
rclavicle 2.3556e-014 -1.07344e-014
rhumerus 65.1775 1.15389 -107.088
rradius 5.86762
rwrist 72.6591
rhand -23.647 7.63124
rfingers 7.12502
rthumb 2.81825 -22.3299
lclavicle 2.3556e-014 -1.07344e-014
lhumerus 63.371 3.57225 98.5464
lradius 9.05969
lwrist -74.3395
lhand -19.6359 1.16243
lfingers 7.12502
lthumb 6.69133 31.0367
rfemur -49.2138 -44.3019 -6.12157
rtibia 124.437
rfoot 353.441 29.5577
rtoes -12.0997
lfemur -594.533 148.321 -177.991
ltibia 122.842
lfoot -16.277 -32.2694
ltoes 1.19573
132
root -3.10077 10.9475 -1.22447 -331.598 -88.4886 311.305
lowerback 50.6295 -3.85983 4.7057
upperback 3.57959 -3.63157 -1.82966
thorax -17.2036 -2.23469 -2.30382
lowerneck 5.64825 3.33603 -2.61766
upperneck -4.64739 4.07098 -2.6781
head -2.44076 2.14989 -0.560325
rclavicle 2.79292e-014 1.19271e-015
rhumerus 65.1451 1.24443 -106.961
rradius 5.96933
rwrist 72.3356
rhand -23.5395 7.55399
rfingers 7.12502
rthumb 2.92212 -22.4057
lclavicle 2.79292e-014 1.19271e-015
lhumerus 63.5364 3.51192 98.5737
lradius 8.88302
lwrist -74.5678
lhand -19.5287 1.33856
lfingers 7.12502
lthumb 6.79479 31.2095
rfemur -48.9228 -42.2876 -4.85458
rtibia 122.814
rfoot 353.969 28.5372
rtoes -11.6708
lfemur -593.553 149.602 -178.588
ltibia 121.215
lfoot -16.055 -31.6411
ltoes 1.62858
133
root -3.10593 11.1233 -1.22577 -331.257 -88.5582 311.156
lowerback 50.1614 -3.81377 4.68348
upperback 3.61997 -3.60157 -1.84554
thorax -17.0807 -2.21716 -2.3406
lowerneck 5.36624 3.35012 -2.61433
upperneck -4.43742 4.10499 -2.70864
head -2.3179 2.16225 -0.562215
rclavicle -1.81888e-014 1.47101e-014
rhumerus 65.1847 1.34098 -106.826
rradius 5.96366
rwrist 72.0429
rhand -23.4598 7.49386
rfingers 7.12502
rthumb 2.99904 -22.4648
lclavicle -1.81888e-014 1.47101e-014
lhumerus 63.6742 3.47762 98.6072
lradius 8.77432
lwrist -74.7679
lhand -19.4382 1.4862
lfingers 7.12502
lthumb 6.88213 31.3543
rfemur -48.4888 -40.4243 -3.75833
rtibia 121.182
rfoot 354.396 27.6258
rtoes -11.3388
lfemur -592.523 150.794 -179.122
ltibia 119.567
lfoot -15.8393 -31.09
ltoes 2.04946
134
root -3.11268 11.2987 -1.22754 -330.655 -88.6186 310.727
lowerback 49.6802 -3.77179 4.69128
upperback 3.66955 -3.56433 -1.87744
thorax -16.9433 -2.19854 -2.41366
lowerneck 5.13026 3.35095 -2.55565
upperneck -4.26599 4.12265 -2.74446
head -2.21556 2.16665 -0.576064
rclavicle 3.10104e-014 3.97569e-016
rhumerus 65.2421 1.3995 -106.703
rradius 5.95105
rwrist 71.786
rhand -23.4229 7.40052
rfingers 7.12502
rthumb 3.03465 -22.5576
lclavicle 3.10104e-014 3.97569e-016
lhumerus 63.7848 3.39048 98.6355
lradius 8.72111
lwrist -74.9996
lhand -19.3118 1.62066
lfingers 7.12502
lthumb 7.00417 31.4848
rfemur -47.8942 -38.7194 -2.81927
rtibia 119.529
rfoot 354.783 26.8083
rtoes -10.9363
lfemur -591.46 151.891 -179.591
ltibia 117.906
lfoot -15.6732 -30.5759
ltoes 2.41924
135
root -3.12016 11.4717 -1.22937 -330.619 -88.6821 310.844
lowerback 49.2051 -3.73073 4.66915
upperback 3.71889 -3.54244 -1.89912
thorax -16.8045 -2.18455 -2.45302
lowerneck 4.92037 3.36283 -2.51916
upperneck -4.11484 4.15058 -2.7962
head -2.12531 2.17731 -0.592353
rclavicle 2.97183e-014 -1.94809e-014
rhumerus 65.302 1.52941 -106.593
rradius 5.89721
rwrist 71.6127
rhand -23.4366 7.29922
rfingers 7.12502
rthumb 3.02147 -22.6591
lclavicle 2.97183e-014 -1.94809e-014
lhumerus 63.8809 3.35668 98.6604
lradius 8.69093
lwrist -75.1741
lhand -19.1802 1.73014
lfingers 7.12502
lthumb 7.13124 31.59
rfemur -47.2059 -37.1807 -2.03144
rtibia 117.883
rfoot 355.051 26.069
rtoes -10.6721
lfemur -590.361 152.902 -180.02
ltibia 116.245
lfoot -15.5214 -30.1502
ltoes 2.78414
136
root -3.12816 11.6435 -1.23123 -331.15 -88.7526 311.514
lowerback 48.74 -3.68218 4.6292
upperback 3.76053 -3.51849 -1.91551
thorax -16.6735 -2.16861 -2.47861
lowerneck 4.6994 3.38173 -2.52209
upperneck -3.92865 4.1889 -2.80495
head -2.0237 2.19195 -0.587912
rclavicle -1.40143e-014 9.54166e-015
rhumerus 65.3616 1.62942 -106.463
rradius 5.80495
rwrist 71.4729
rhand -23.5238 7.18523
rfingers 7.12502
rthumb 2.93727 -22.7743
lclavicle -1.40143e-014 9.54166e-015
lhumerus 63.9246 3.33194 98.6951
lradius 8.70022
lwrist -75.3198
lhand -19.0782 1.85626
lfingers 7.12502
lthumb 7.22968 31.7128
rfemur -46.4391 -35.784 -1.35858
rtibia 116.227
rfoot 355.296 25.4155
rtoes -10.3794
lfemur -589.239 153.837 -180.435
ltibia 114.564
lfoot -15.3155 -29.7541
ltoes 3.21434
137
root -3.13696 11.815 -1.23293 -330.388 -88.8048 310.884
lowerback 47.436 -3.60021 4.63716
upperback 4.82921 -3.49415 -1.91366
thorax -16.7209 -2.16997 -2.59979
lowerneck 4.50217 3.38657 -2.4207
upperneck -3.77495 4.21105 -2.86878
head -1.934 2.19909 -0.618676
rclavicle -1.98785e-016 7.95139e-015
rhumerus 65.4131 1.69774 -106.367
rradius 5.73278
rwrist 71.3842
rhand -23.5846 7.06689
rfingers 7.12502
rthumb 2.87849 -22.8934
lclavicle -1.98785e-016 7.95139e-015
lhumerus 63.9726 3.26378 98.6991
lradius 8.69509
lwrist -75.4358
lhand -18.9602 1.98115
lfingers 7.12502
lthumb 7.34354 31.8337
rfemur -45.5954 -34.5046 -0.719411
rtibia 114.559
rfoot 355.441 24.7969
rtoes -10.1829
lfemur -588.109 154.692 -180.78
ltibia 112.875
lfoot -15.0849 -29.3967
ltoes 3.64896
138
root -3.14619 11.9873 -1.23468 -330.352 -88.8684 310.976
lowerback 46.9803 -3.55736 4.61242
upperback 4.84434 -3.46645 -1.92893
thorax -16.5754 -2.15309 -2.6328
lowerneck 4.31014 3.39397 -2.42751
upperneck -3.58623 4.23177 -2.89301
head -1.83748 2.20535 -0.618329
rclavicle -1.23246e-014 3.57812e-015
rhumerus 65.4305 1.80157 -106.239
rradius 5.7074
rwrist 71.2605
rhand -23.6418 6.97648
rfingers 7.12502
rthumb 2.8233 -22.9846
lclavicle -1.23246e-014 3.57812e-015
lhumerus 64.0305 3.23841 98.7333
lradius 8.65324
lwrist -75.5503
lhand -18.8626 2.12503
lfingers 7.12502
lthumb 7.43776 31.9743
rfemur -44.7207 -33.2974 -0.15553
rtibia 112.87
rfoot 355.591 24.2242
rtoes -9.94756
lfemur -586.938 155.503 -181.136
ltibia 111.154
lfoot -14.8958 -29.0354
ltoes 3.9981
139
root -3.1567 12.1566 -1.23722 -330.212 -88.9356 310.949
lowerback 46.5297 -3.50765 4.57764
upperback 4.86399 -3.43682 -1.95056
thorax -16.4238 -2.1351 -2.66855
lowerneck 4.11183 3.40061 -2.34351
upperneck -3.41282 4.2551 -2.96286
head -1.74224 2.21293 -0.647487
rclavicle -3.77691e-015 -2.38542e-015
rhumerus 65.4665 1.91941 -106.135
rradius 5.62049
rwrist 71.1665
rhand -23.682 6.81817
rfingers 7.12502
rthumb 2.7845 -23.1434
lclavicle -3.77691e-015 -2.38542e-015
lhumerus 64.0753 3.21938 98.7445
lradius 8.62471
lwrist -75.6347
lhand -18.7591 2.2233
lfingers 7.12502
lthumb 7.53766 32.069
rfemur -43.775 -32.225 0.32881
rtibia 111.189
rfoot 355.66 23.7172
rtoes -9.82221
lfemur -585.752 156.231 -181.449
ltibia 109.44
lfoot -14.7083 -28.7298
ltoes 4.51851
140
root -3.16958 12.3203 -1.23896 -329.938 -88.9856 310.779
lowerback 46.0843 -3.47339 4.56274
upperback 4.83527 -3.40775 -1.95999
thorax -16.3309 -2.11728 -2.69981
lowerneck 4.05841 3.40969 -2.34188
upperneck -3.27565 4.27175 -2.99178
head -1.68759 2.2189 -0.653733
rclavicle 2.28602e-015 -8.34896e-015
rhumerus 65.4342 2.02638 -106.018
rradius 5.48597
rwrist 70.9884
rhand -23.7598 6.69838
rfingers 7.12502
rthumb 2.70929 -23.2642
lclavicle 2.28602e-015 -8.34896e-015
lhumerus 64.0297 3.20354 98.7854
lradius 8.55822
lwrist -75.7233
lhand -18.6657 2.3566
lfingers 7.12502
lthumb 7.6278 32.199
rfemur -42.8032 -31.2789 0.742951
rtibia 109.534
rfoot 355.755 23.2935
rtoes -9.51197
lfemur -584.572 156.919 -181.722
ltibia 107.746
lfoot -14.5773 -28.4798
ltoes 4.91415
141
root -3.18429 12.4797 -1.24112 -328.964 -89.038 309.912
lowerback 45.6227 -3.43553 4.55187
upperback 4.7819 -3.3713 -1.97831
thorax -16.2618 -2.09617 -2.74713
lowerneck 4.0188 3.41509 -2.28087
upperneck -3.05692 4.28824 -3.04152
head -1.60746 2.22318 -0.675226
rclavicle -1.60022e-014 -8.74653e-015
rhumerus 65.3371 2.07129 -105.908
rradius 5.36602
rwrist 70.8342
rhand -23.771 6.65005
rfingers 7.12502
rthumb 2.6985 -23.3126
lclavicle -1.60022e-014 -8.74653e-015
lhumerus 63.9106 3.20766 98.7928
lradius 8.48804
lwrist -75.7715
lhand -18.5404 2.49093
lfingers 7.12502
lthumb 7.74878 32.3289
rfemur -41.8269 -30.4194 1.12119
rtibia 107.901
rfoot 355.799 22.9214
rtoes -9.37358
lfemur -583.408 157.524 -181.959
ltibia 106.073
lfoot -14.5402 -28.2524
ltoes 5.37258
142
root -3.20063 12.64 -1.24364 -329.2 -89.1014 310.254
lowerback 45.1178 -3.38671 4.51083
upperback 4.75818 -3.33998 -1.9958
thorax -16.1405 -2.07565 -2.77668
lowerneck 3.96481 3.41682 -2.21153
upperneck -2.88963 4.29748 -3.13039
head -1.54064 2.22516 -0.710561
rclavicle -2.18663e-015 1.43125e-014
rhumerus 65.2234 2.14073 -105.795
rradius 5.32447
rwrist 70.646
rhand -23.7645 6.56236
rfingers 7.12502
rthumb 2.70479 -23.4002
lclavicle -2.18663e-015 1.43125e-014
lhumerus 63.8178 3.20734 98.809
lradius 8.41355
lwrist -75.828
lhand -18.3885 2.63821
lfingers 7.12502
lthumb 7.89537 32.4708
rfemur -40.7995 -29.6392 1.44225
rtibia 106.245
rfoot 355.796 22.5969
rtoes -9.17804
lfemur -582.2 158.126 -182.218
ltibia 104.374
lfoot -14.5856 -28.0265
ltoes 5.80289
